Coordinates
version=1
nRows=14
nColumns=36
inDegrees=yes

Units are S.I. units (second, meters, Newtons, ...)
If the header above contains a line with 'inDegrees', this indicates whether rotational values are in degrees (yes) or radians (no).

endheader
time	pelvis_tilt	pelvis_list	pelvis_rotation	pelvis_tx	pelvis_ty	pelvis_tz	hip_flexion_r	hip_adduction_r	hip_rotation_r	knee_angle_r	knee_angle_r_beta	ankle_angle_r	subtalar_angle_r	mtp_angle_r	hip_flexion_l	hip_adduction_l	hip_rotation_l	knee_angle_l	knee_angle_l_beta	ankle_angle_l	subtalar_angle_l	mtp_angle_l	lumbar_extension	lumbar_bending	lumbar_rotation	arm_flex_r	arm_add_r	arm_rot_r	elbow_flex_r	pro_sup_r	arm_flex_l	arm_add_l	arm_rot_l	elbow_flex_l	pro_sup_l
      3.00000000	    -19.83197365	      2.85282902	     -7.15314319	      0.54037443	      1.24558997	      0.01170076	     32.07134340	     -4.27964182	     -3.14133101	      0.55186880	      0.00963193	    -23.95484159	     -0.91969373	     -7.49999987	     35.57287417	     -5.56850535	     -3.71513175	      6.08672993	      0.10623348	    -27.23960552	     -1.66379684	     -7.49999987	     -7.67719609	     -0.35977999	      1.72515064	    -50.92988026	    -19.30137387	    -49.26963874	      1.71710167	    104.77815092	    -49.36204058	    -25.83426712	    -39.75964431	     14.97475884	    105.31731110
      3.01666670	    -19.74416583	      2.47774977	     -7.10211749	      0.56957943	      1.20413177	      0.01706440	     32.55300941	     -4.15694981	     -3.09431816	      0.90795311	      0.01584677	    -23.33067412	     -1.11038571	     -7.49999987	     36.33780770	     -6.04976431	     -3.72214987	      7.02511033	      0.12261131	    -27.55171507	     -2.53085079	     -7.49999987	     -9.99974884	      0.22674237	      0.31143786	    -52.22556535	    -20.05965800	    -43.80204230	      2.21505712	    109.72446547	    -52.30433463	    -22.83015494	    -42.22560863	     20.77744746	    108.25077804
      3.03333330	    -20.00049969	      2.22728800	     -7.28072893	      0.61259349	      1.15918088	      0.02416546	     31.73286097	     -3.85520292	     -2.44243254	      0.56682248	      0.00989292	    -21.95139413	     -0.89366859	     -7.49999987	     35.34278783	     -6.64224860	     -3.64462814	      6.10209582	      0.10650166	    -28.26381350	     -2.52030201	     -7.49999987	     -9.19470210	      0.75861753	      0.41622741	    -55.95148035	    -19.40492704	    -44.03219093	      3.44721518	    106.64341997	    -55.06412843	    -21.81676327	    -42.72092935	     22.93770722	    105.33035123
      3.05000000	    -19.32756802	      1.58218828	     -7.64751751	      0.63343726	      1.12446185	      0.02441510	     30.16829446	     -3.30561967	     -1.47620513	      0.61113093	      0.01066625	    -21.25614508	     -1.05091898	     -7.49999987	     34.73285837	     -7.26593811	     -2.92464049	      6.67858933	      0.11656337	    -27.20599924	     -1.70806759	     -7.49999987	     -9.22004241	      0.49252020	     -0.69305572	    -55.18256353	    -20.26451557	    -43.69681719	      2.58031880	    110.00709688	    -57.96991140	    -11.33434032	    -64.71221149	     41.21881423	    112.63398775
      3.06666670	    -18.84827689	      1.24994183	     -7.71804726	      0.64160728	      1.09077563	      0.02782873	     30.09537202	     -3.09989495	     -1.14337318	      1.24277014	      0.02169043	    -22.75919449	     -1.81434770	     -7.49999987	     34.97239774	     -7.44477980	     -2.34519579	      7.45683386	      0.13014630	    -27.05163131	     -0.47500288	     -7.49999987	    -10.06674219	      0.44096312	     -1.69409922	    -53.11845543	    -20.23227568	    -40.51129034	      2.58185759	    109.30504398	    -55.69173347	     -5.09188747	    -71.95969638	     50.85230806	    112.71414312
      3.08333330	    -18.22411976	      0.92627390	     -7.67772770	      0.64818511	      1.04193503	      0.02584309	     30.59293265	     -3.00179089	     -0.75931856	      3.33731400	      0.05824712	    -23.12654718	     -2.53876041	     -7.49999987	     35.65995141	     -7.59697805	     -2.06594302	      9.48404978	      0.16552790	    -27.15424837	     -0.50686808	     -7.49999987	    -10.25715007	      0.97358656	     -2.44118102	    -51.53648651	    -20.89720194	    -38.76628696	      2.38703358	    108.24754844	    -54.79344619	     -2.57331787	    -72.79361830	     57.17070584	    111.76523802
      3.10000000	    -18.38382943	      0.71685887	     -7.87132086	      0.66380317	      1.00077074	      0.02863909	     32.28101939	     -2.86273085	      0.82429995	      7.11907240	      0.12425125	    -19.01493254	     -4.02100657	     -7.49999987	     37.75719803	     -7.90137403	     -0.97901914	     14.04203713	      0.24507978	    -22.86846726	     -2.10951359	     -7.49999987	    -11.33540301	      1.73071179	     -1.94442453	    -49.41224939	    -19.61268081	    -37.94993740	      2.63177413	    106.45324054	    -50.99131323	     -2.08913500	    -70.65076155	     58.25406844	    110.23385031
      3.11666670	    -19.42311178	      0.56705556	     -8.05800874	      0.67591584	      0.95806054	      0.03100082	     36.48425647	     -2.22938711	      2.33732805	     15.66466940	      0.27340006	    -10.52589619	     -7.43739659	     -7.49999987	     43.05399262	     -8.25267760	      0.72133815	     24.43892389	      0.42653969	    -13.50989677	     -5.15986088	     -7.49999987	    -11.56158182	      2.50896445	     -1.22912326	    -45.05908881	    -18.03363716	    -30.19180736	      2.85467941	    106.66370947	    -45.68158291	     -3.74219098	    -65.09395861	     52.39376951	    112.75527698
      3.13333330	    -20.07774897	      0.20370318	     -8.06537872	      0.71289997	      0.92022389	      0.04348025	     41.01867258	     -1.09704573	      2.84008771	     27.99453569	      0.48859682	     -0.10229924	    -12.33051047	     -7.49999987	     46.60205469	     -8.66428648	      2.46850653	     34.58656172	      0.60364938	     -3.15065966	     -7.53025364	     -7.49999987	     -8.75587530	      3.33697992	     -1.25908461	    -41.04189599	    -16.83204699	    -27.27061612	      2.32888351	    102.44675710	    -40.70457852	     -5.90531929	    -60.44823191	     44.36304683	    111.75107170
      3.15000000	    -20.74063204	      0.45903377	     -7.92612042	      0.72687088	      0.89358325	      0.04200588	     46.14175028	     -0.93892332	      3.24670410	     40.60266636	      0.70865021	      9.14609344	    -14.67168256	     -7.49999987	     50.43800300	     -8.39701961	      3.49322142	     44.47729673	      0.77627527	      6.89681565	     -7.51760336	     -7.49999987	     -5.41862061	      3.03581312	     -2.17890523	    -34.87470536	    -15.58837845	    -26.80465177	      1.80711758	     97.47442730	    -33.53203143	     -6.20642287	    -58.08567717	     34.73712197	    108.43278400
      3.16666670	    -20.41863048	      0.42011768	     -7.92466464	      0.72379873	      0.87277538	      0.04085041	     50.32001472	     -0.42140537	      3.87761151	     51.50222017	      0.89888331	     16.07610318	    -15.35775842	     -7.49999987	     54.97325900	     -8.18853792	      4.74599121	     55.25131167	      0.96431730	     14.01788146	     -7.74788754	     -7.49999987	     -4.24746635	      3.63433136	     -2.17599572	    -27.98994045	    -14.46904591	    -23.20743500	      2.17747947	     90.48633866	    -23.82322258	     -9.48647183	    -39.92481095	     20.42769453	    103.96021144
      3.18333330	    -18.08000814	     -0.02392365	     -7.84903156	      0.72496269	      0.85932296	      0.03880865	     51.35484339	     -0.12935575	      3.94345350	     59.39641063	      1.03666293	     21.35500509	    -14.59454018	     -7.49999987	     56.37554730	     -7.94357548	      5.71123245	     63.15799556	      1.10231497	     18.76741809	     -7.80043200	     -7.49999987	     -8.66757278	      3.87672795	     -2.69067861	    -17.62282364	    -13.43533623	    -19.75511354	      3.24567807	     84.48461751	    -13.04900612	     -9.43259762	    -28.76253714	     14.59723021	     99.36365912
      3.20000000	    -13.52509139	     -0.93341236	     -7.99968087	      0.72015966	      0.85189718	      0.03760012	     48.79067922	      0.22749632	      3.68948251	     64.09380358	      1.11864790	     24.61773394	    -13.71079759	     -7.49999987	     54.07458235	     -8.07220219	      6.49720648	     68.03992040	      1.18752063	     21.18453928	     -8.10314504	     -7.49999987	    -20.75794391	      4.24865812	     -2.66295695	     -5.35268436	    -12.62302644	     -9.85433136	      6.53936215	     70.07394222	     -1.30383929	     -9.47162349	    -16.86335544	     13.98115924	     83.29036240
      3.21666670	    -10.92366600	     -1.47204973	     -7.98269314	      0.72283561	      0.85659629	      0.04112818	     46.25349064	      0.37887045	      3.47533755	     65.11516319	      1.13647399	     26.06731363	    -13.08542062	     -7.49999987	     51.54600191	     -8.06849693	      7.01102503	     68.97758719	      1.20388601	     21.92382198	     -8.52882263	     -7.49999987	    -32.63194245	      4.28569606	     -1.93952708	      9.04464466	    -13.17647497	      2.15960386	     13.44091192	     59.98918013	     11.93804428	    -10.36064343	    -12.33948092	     18.83148676	     81.23928065
